Coordinates
version=1
nRows=28
nColumns=23
inDegrees=yes

Units are S.I. units (second, meters, Newtons, ...)
If the header above contains a line with 'inDegrees', this indicates whether rotational values are in degrees (yes) or radians (no).

endheader
time	pelvis_tilt	pelvis_list	pelvis_rotation	pelvis_tx	pelvis_ty	pelvis_tz	hip_flexion_r	hip_adduction_r	hip_rotation_r	knee_angle_r	knee_angle_r_beta	ankle_angle_r	subtalar_angle_r	mtp_angle_r	hip_flexion_l	hip_adduction_l	hip_rotation_l	knee_angle_l	knee_angle_l_beta	ankle_angle_l	subtalar_angle_l	mtp_angle_l
      7.50000000	     -5.81818430	      3.98405138	     12.88786478	      2.48890205	      1.08740650	      0.97477063	    -21.40061353	     -4.95189248	    -26.64619591	     55.83355979	      0.97447945	    -12.35344607	    -24.79332780	      0.00000000	     27.68408931	     11.82022338	      4.24971507	     14.18503328	      0.24757554	      9.61891833	      5.08297088	      0.00000000
      7.50666667	     -5.22109896	      4.17143817	     12.79800644	      2.48786726	      1.08444729	      0.97488370	    -21.10814444	     -5.24838286	    -25.48114362	     59.74009081	      1.04266128	    -13.01045287	    -26.19792247	      0.00000000	     26.00174300	     11.92843688	      5.05188774	     11.26300580	      0.19657653	      9.52180063	      5.70431887	      0.00000000
      7.51333333	     -4.88469532	      4.38477934	     12.84019846	      2.48651267	      1.08061026	      0.97482787	    -20.45376933	     -5.64931837	    -24.58606898	     63.84609417	      1.11432456	    -13.42689053	    -27.22526548	      0.00000000	     24.90621648	     12.12884553	      5.49821341	      9.33950636	      0.16300514	      9.51884190	      6.44191664	      0.00000000
      7.52000000	     -4.56588503	      4.73338937	     12.92922582	      2.48486334	      1.07636095	      0.97471718	    -19.72425419	     -6.20577496	    -23.85705230	     68.06190990	      1.18790442	    -13.60454565	    -27.96170518	      0.00000000	     24.02349560	     12.47691278	      5.71461597	      8.21369891	      0.14335609	      9.33344936	      6.74730172	      0.00000000
      7.52666667	     -4.46989983	      5.17765523	     13.12879617	      2.48288068	      1.07145679	      0.97447171	    -18.70786210	     -6.94591412	    -23.35795131	     72.39844905	      1.26359131	    -13.43395189	    -28.40651522	      0.00000000	     23.59721313	     13.00753393	      5.73254928	      7.92958369	      0.13839734	      8.93280440	      6.71866255	      0.00000000
      7.53333333	     -4.71127482	      5.61880201	     13.50326885	      2.48047994	      1.06574789	      0.97403529	    -17.25591945	     -7.74798100	    -23.01013140	     76.83213702	      1.34097376	    -12.97301222	    -28.66650181	      0.00000000	     23.85289237	     13.66177724	      5.44473886	      8.67300771	      0.15137254	      8.64338235	      6.66018862	      0.00000000
      7.54000000	     -4.81040531	      6.23564544	     13.97304276	      2.47791850	      1.05995759	      0.97354915	    -15.99351517	     -8.73860341	    -22.87339672	     81.21175586	      1.41741253	    -12.34394263	    -28.83698359	      0.00000000	     24.04004327	     14.48707104	      5.14575910	     10.03468404	      0.17513828	      8.09140395	      6.15372488	      0.00000000
      7.54666667	     -5.59903128	      6.57670794	     14.53455394	      2.47473258	      1.05294896	      0.97298065	    -13.75683534	     -9.62829866	    -22.59707598	     85.73632877	      1.49638123	    -11.41638819	    -28.94817109	      0.00000000	     25.39915043	     15.18582976	      4.42159854	     12.47362166	      0.21770577	      7.59099563	      5.77117016	      0.00000000
      7.55333333	     -6.21667944	      7.00888816	     15.16230664	      2.47140780	      1.04594217	      0.97249470	    -11.70413795	    -10.60617628	    -22.40674672	     90.13422195	      1.57313894	    -10.40236675	    -29.00470124	      0.00000000	     26.63112314	     15.95033441	      3.87939320	     15.41597389	      0.26905950	      7.03786433	      4.86923854	      0.00000000
      7.56000000	     -6.89107983	      7.25291476	     15.72775834	      2.46776939	      1.03872637	      0.97231097	     -9.36860810	    -11.40885476	    -21.99954769	     94.46591027	      1.64874117	     -9.34372361	    -29.03518452	      0.00000000	     28.08786125	     16.49873598	      3.38062269	     18.88484692	      0.32960276	      6.53569824	      3.64074967	      0.00000000
      7.56666667	     -7.55093016	      7.44299851	     16.24206034	      2.46391991	      1.03147317	      0.97238625	     -6.90344049	    -12.17357765	    -21.45863975	     98.67519106	      1.72220697	     -8.30774775	    -29.03953837	      0.00000000	     29.53066460	     17.00149647	      3.19898288	     22.60365150	      0.39450814	      6.34957997	      1.98921265	      0.00000000
      7.57333333	     -8.19472539	      7.58479615	     16.62100782	      2.45989721	      1.02437128	      0.97275078	     -4.25116687	    -12.90507816	    -20.66929169	    102.75926541	      1.79348752	     -7.27761007	    -29.01165356	      0.00000000	     30.88597823	     17.45385952	      3.29626342	     26.38049399	      0.46042648	      6.48668987	     -0.01418518	      0.00000000
      7.58000000	     -8.78129502	      7.71970489	     16.90631587	      2.45576734	      1.01760844	      0.97327169	     -1.49758909	    -13.63453772	    -19.69330125	    106.65649069	      1.86150693	     -6.31107580	    -28.92412104	      0.00000000	     32.04126231	     17.91364314	      3.63477225	     30.08801916	      0.52513500	      7.14064551	     -2.09770085	      0.00000000
      7.58666667	     -9.36371767	      7.92710354	     16.98298295	      2.45161099	      1.01129049	      0.97404008	      1.45645381	    -14.43346123	    -18.36234398	    110.37059224	      1.92633023	     -5.45440764	    -28.78653541	      0.00000000	     32.97250842	     18.38141652	      4.00987540	     33.51638042	      0.58497119	      8.13497991	     -4.19936408	      0.00000000
      7.59333333	     -9.83853940	      8.13661927	     16.91988992	      2.44750949	      1.00566462	      0.97495804	      4.49143645	    -15.17668902	    -16.78473136	    113.80493625	      1.98627084	     -4.65901097	    -28.52339006	      0.00000000	     33.57687242	     18.74663423	      4.32204904	     36.67188480	      0.64004513	      9.62507143	     -5.84650924	      0.00000000
      7.60000000	    -10.23084222	      8.32016012	     16.67894962	      2.44357917	      1.00077282	      0.97604216	      7.65319382	    -15.79888038	    -14.93656717	    116.93033540	      2.04081935	     -3.87489786	    -28.05739051	      0.00000000	     33.85211065	     18.93116145	      4.51068559	     39.45797853	      0.68867164	     11.50125015	     -6.98172834	      0.00000000
      7.60666667	    -10.56105361	      8.54226452	     16.20394336	      2.43987869	      0.99661461	      0.97731540	     10.96487487	    -16.34123071	    -12.76018493	    119.73491498	      2.08976850	     -3.06893360	    -27.34836626	      0.00000000	     33.79193125	     18.94212639	      4.46236451	     41.79313630	      0.72942783	     13.61833403	     -7.59219237	      0.00000000
      7.61333333	    -10.83286775	      8.75416903	     15.53545757	      2.43652373	      0.99325341	      0.97867449	     14.40627122	    -16.72233353	    -10.35758900	    122.16173151	      2.13212443	     -2.25855745	    -26.28678127	      0.00000000	     33.38165357	     18.77725099	      4.28915269	     43.64682516	      0.76178081	     15.93502391	     -7.69569830	      0.00000000
      7.62000000	    -10.12975068	      8.86820642	     15.14214319	      2.43418679	      0.99225944	      0.97948286	     16.53576138	    -16.73225802	     -8.63642511	    123.80447753	      2.16079576	     -1.82175157	    -25.56667232	      0.00000000	     31.40834226	     18.60620844	      5.05546868	     44.86759582	      0.78308727	     17.94459835	     -7.97749513	      0.00000000
      7.62666667	    -11.23996681	      8.99919389	     13.74194096	      2.43105959	      0.98873591	      0.98148135	     21.53177178	    -16.75878047	     -5.31514355	    125.77690751	      2.19522116	     -0.40033169	    -23.46398965	      0.00000000	     31.62072651	     17.87834177	      3.64034968	     45.98438272	      0.80257888	     20.50303856	     -6.95521462	      0.00000000
      7.63333333	    -11.29031174	      9.05286449	     12.69945258	      2.42916077	      0.98775338	      0.98279991	     24.95226841	    -16.43268402	     -2.90673488	    126.89448784	      2.21472662	      0.55475048	    -21.82004470	      0.00000000	     30.16096972	     17.23102270	      3.22661775	     46.45458512	      0.81078546	     22.52824418	     -6.25734813	      0.00000000
      7.64000000	    -11.13283279	      8.93543471	     11.51506961	      2.42784293	      0.98779348	      0.98420337	     28.10460110	    -15.68156987	     -0.71625410	    127.51143052	      2.22549430	      1.44366089	    -20.29680597	      0.00000000	     28.25957687	     16.34704214	      2.82009442	     46.49404447	      0.81147416	     24.05126075	     -5.75288228	      0.00000000
      7.64666667	    -11.49062255	      8.79362633	     10.39844159	      2.42678576	      0.98771883	      0.98546659	     31.75965063	    -14.88093899	      1.34646916	    127.80671960	      2.23064806	      2.17622872	    -18.97230493	      0.00000000	     26.74753594	     15.47910780	      2.14185527	     46.25207984	      0.80725108	     25.55907182	     -4.62893196	      0.00000000
      7.65333333	    -11.47165715	      8.49103499	      9.26879644	      2.42648090	      0.98896796	      0.98666024	     34.75401117	    -13.76850525	      2.92758807	    127.56251468	      2.22638588	      2.85596801	    -17.74411589	      0.00000000	     24.61222936	     14.46185377	      1.60765641	     45.60062395	      0.79588103	     26.35951361	     -3.87443531	      0.00000000
      7.66000000	    -11.34898135	      8.01728744	      8.23869440	      2.42677888	      0.99114794	      0.98763635	     37.35528873	    -12.48247085	      4.00727946	    126.84884892	      2.21393007	      3.42263750	    -16.72587478	      0.00000000	     22.18878810	     13.42970566	      1.38081660	     44.61553973	      0.77868807	     26.59114348	     -3.72792242	      0.00000000
      7.66666667	    -11.02887324	      7.36619951	      7.16009868	      2.42774156	      0.99417732	      0.98888100	     39.47823668	    -10.91777068	      4.67496071	    125.72102405	      2.19424581	      4.04736411	    -15.83125728	      0.00000000	     19.49996781	     11.93392281	      0.40433217	     43.48718079	      0.75899449	     26.61549658	     -2.11223216	      0.00000000
      7.67333333	    -11.17021276	      6.75252345	      6.24753253	      2.42885731	      0.99715484	      0.98974233	     41.90183953	     -9.51941332	      5.15255409	    124.32805897	      2.16993398	      4.58955620	    -15.01571586	      0.00000000	     17.20569011	     10.85666082	     -0.03570501	     42.09959810	      0.73477660	     25.68746199	     -1.93118156	      0.00000000
      7.68000000	    -11.27474959	      6.12206392	      5.36550075	      2.43045803	      1.00068123	      0.99058187	     44.02642436	     -8.13044616	      5.37662004	    122.61683360	      2.14006746	      5.17134275	    -14.32180295	      0.00000000	     14.83017158	      9.73146848	     -0.71828557	     40.56145056	      0.70793086	     24.20928794	     -1.51242502	      0.00000000
